<svg id="visual" viewBox="0 0 900 600" width="900" height="600" xmlns="http://www.w3.org/2000/svg" xmlns:xlink="http://www.w3.org/1999/xlink" version="1.1"><rect x="0" y="0" width="900" height="600" fill="#afeaff"></rect><g fill="none" stroke="#F9FAFB" stroke-width="2"><circle r="12" cx="23" cy="416"></circle><circle r="0" cx="700" cy="145"></circle><circle r="1" cx="45" cy="18"></circle><circle r="10" cx="107" cy="520"></circle><circle r="0" cx="725" cy="402"></circle><circle r="9" cx="808" cy="90"></circle><circle r="4" cx="797" cy="153"></circle><circle r="0" cx="123" cy="307"></circle><circle r="7" cx="806" cy="567"></circle><circle r="2" cx="860" cy="137"></circle><circle r="6" cx="437" cy="55"></circle><circle r="8" cx="888" cy="223"></circle><circle r="1" cx="801" cy="494"></circle><circle r="7" cx="337" cy="516"></circle><circle r="8" cx="583" cy="283"></circle><circle r="2" cx="235" cy="545"></circle><circle r="5" cx="87" cy="216"></circle><circle r="8" cx="145" cy="342"></circle><circle r="4" cx="531" cy="561"></circle><circle r="0" cx="323" cy="221"></circle><circle r="2" cx="276" cy="219"></circle><circle r="8" cx="331" cy="4"></circle><circle r="8" cx="261" cy="465"></circle><circle r="9" cx="523" cy="330"></circle><circle r="5" cx="287" cy="169"></circle><circle r="7" cx="848" cy="367"></circle><circle r="10" cx="358" cy="414"></circle><circle r="-1" cx="680" cy="367"></circle><circle r="5" cx="423" cy="521"></circle><circle r="1" cx="91" cy="286"></circle><circle r="1" cx="12" cy="449"></circle><circle r="3" cx="704" cy="203"></circle><circle r="0" cx="795" cy="265"></circle><circle r="3" cx="556" cy="387"></circle><circle r="9" cx="343" cy="596"></circle><circle r="6" cx="84" cy="81"></circle><circle r="6" cx="404" cy="453"></circle><circle r="7" cx="734" cy="157"></circle><circle r="9" cx="865" cy="470"></circle><circle r="9" cx="110" cy="52"></circle><circle r="0" cx="263" cy="290"></circle><circle r="2" cx="359" cy="248"></circle><circle r="6" cx="402" cy="489"></circle><circle r="10" cx="284" cy="108"></circle><circle r="0" cx="758" cy="396"></circle><circle r="-1" cx="321" cy="492"></circle><circle r="4" cx="424" cy="273"></circle><circle r="4" cx="74" cy="591"></circle><circle r="8" cx="772" cy="176"></circle><circle r="8" cx="375" cy="343"></circle><circle r="4" cx="617" cy="337"></circle><circle r="3" cx="527" cy="251"></circle><circle r="8" cx="248" cy="234"></circle><circle r="1" cx="123" cy="158"></circle><circle r="2" cx="641" cy="317"></circle><circle r="0" cx="768" cy="66"></circle><circle r="1" cx="552" cy="431"></circle><circle r="7" cx="247" cy="75"></circle><circle r="3" cx="870" cy="346"></circle><circle r="5" cx="719" cy="295"></circle><circle r="5" cx="622" cy="124"></circle><circle r="10" cx="804" cy="313"></circle><circle r="2" cx="112" cy="421"></circle><circle r="5" cx="355" cy="558"></circle><circle r="9" cx="149" cy="524"></circle><circle r="9" cx="897" cy="260"></circle><circle r="9" cx="409" cy="111"></circle><circle r="0" cx="496" cy="492"></circle><circle r="3" cx="147" cy="188"></circle><circle r="3" cx="489" cy="581"></circle><circle r="1" cx="224" cy="127"></circle><circle r="3" cx="854" cy="417"></circle><circle r="6" cx="697" cy="509"></circle><circle r="2" cx="671" cy="288"></circle><circle r="1" cx="41" cy="589"></circle><circle r="7" cx="229" cy="512"></circle><circle r="1" cx="587" cy="455"></circle><circle r="9" cx="37" cy="234"></circle><circle r="2" cx="127" cy="585"></circle><circle r="-1" cx="180" cy="465"></circle><circle r="1" cx="763" cy="498"></circle><circle r="7" cx="890" cy="526"></circle><circle r="0" cx="30" cy="390"></circle><circle r="4" cx="257" cy="365"></circle><circle r="7" cx="543" cy="122"></circle><circle r="3" cx="221" cy="158"></circle><circle r="1" cx="713" cy="84"></circle><circle r="6" cx="394" cy="591"></circle><circle r="8" cx="822" cy="191"></circle><circle r="4" cx="23" cy="346"></circle><circle r="8" cx="357" cy="324"></circle><circle r="8" cx="54" cy="444"></circle><circle r="-1" cx="455" cy="467"></circle><circle r="6" cx="317" cy="66"></circle><circle r="2" cx="113" cy="238"></circle></g></svg>