<svg id="visual" viewBox="0 0 900 600" width="900" height="600" xmlns="http://www.w3.org/2000/svg" xmlns:xlink="http://www.w3.org/1999/xlink" version="1.1"><rect x="0" y="0" width="900" height="600" fill="#F3F4F6"></rect><path d="M0 329L12.5 327.3C25 325.7 50 322.3 75 318.3C100 314.3 125 309.7 150 314C175 318.3 200 331.7 225 334.3C250 337 275 329 300 332.5C325 336 350 351 375 358.2C400 365.3 425 364.7 450 363.2C475 361.7 500 359.3 525 357.3C550 355.3 575 353.7 600 349.8C625 346 650 340 675 340.3C700 340.7 725 347.3 750 343C775 338.7 800 323.3 825 315.7C850 308 875 308 887.5 308L900 308L900 601L887.5 601C875 601 850 601 825 601C800 601 775 601 750 601C725 601 700 601 675 601C650 601 625 601 600 601C575 601 550 601 525 601C500 601 475 601 450 601C425 601 400 601 375 601C350 601 325 601 300 601C275 601 250 601 225 601C200 601 175 601 150 601C125 601 100 601 75 601C50 601 25 601 12.5 601L0 601Z" fill="#b3ebff"></path><path d="M0 397L12.5 398C25 399 50 401 75 397.5C100 394 125 385 150 379.8C175 374.7 200 373.3 225 368.8C250 364.3 275 356.7 300 355C325 353.3 350 357.7 375 367.3C400 377 425 392 450 390.3C475 388.7 500 370.3 525 364.5C550 358.7 575 365.3 600 365.8C625 366.3 650 360.7 675 363C700 365.3 725 375.7 750 373.2C775 370.7 800 355.3 825 347.5C850 339.7 875 339.3 887.5 339.2L900 339L900 601L887.5 601C875 601 850 601 825 601C800 601 775 601 750 601C725 601 700 601 675 601C650 601 625 601 600 601C575 601 550 601 525 601C500 601 475 601 450 601C425 601 400 601 375 601C350 601 325 601 300 601C275 601 250 601 225 601C200 601 175 601 150 601C125 601 100 601 75 601C50 601 25 601 12.5 601L0 601Z" fill="#9bd6ec"></path><path d="M0 426L12.5 428.3C25 430.7 50 435.3 75 429.7C100 424 125 408 150 398.3C175 388.7 200 385.3 225 392.7C250 400 275 418 300 418C325 418 350 400 375 393C400 386 425 390 450 398.8C475 407.7 500 421.3 525 419C550 416.7 575 398.3 600 398.3C625 398.3 650 416.7 675 427C700 437.3 725 439.7 750 435.5C775 431.3 800 420.7 825 415C850 409.3 875 408.7 887.5 408.3L900 408L900 601L887.5 601C875 601 850 601 825 601C800 601 775 601 750 601C725 601 700 601 675 601C650 601 625 601 600 601C575 601 550 601 525 601C500 601 475 601 450 601C425 601 400 601 375 601C350 601 325 601 300 601C275 601 250 601 225 601C200 601 175 601 150 601C125 601 100 601 75 601C50 601 25 601 12.5 601L0 601Z" fill="#82c2d9"></path><path d="M0 440L12.5 441.3C25 442.7 50 445.3 75 443.5C100 441.7 125 435.3 150 430.5C175 425.7 200 422.3 225 426.3C250 430.3 275 441.7 300 446.3C325 451 350 449 375 451.2C400 453.3 425 459.7 450 454.8C475 450 500 434 525 429.3C550 424.7 575 431.3 600 434C625 436.7 650 435.3 675 438.8C700 442.3 725 450.7 750 456C775 461.3 800 463.7 825 457.2C850 450.7 875 435.3 887.5 427.7L900 420L900 601L887.5 601C875 601 850 601 825 601C800 601 775 601 750 601C725 601 700 601 675 601C650 601 625 601 600 601C575 601 550 601 525 601C500 601 475 601 450 601C425 601 400 601 375 601C350 601 325 601 300 601C275 601 250 601 225 601C200 601 175 601 150 601C125 601 100 601 75 601C50 601 25 601 12.5 601L0 601Z" fill="#6aaec6"></path><path d="M0 458L12.5 463.8C25 469.7 50 481.3 75 487.2C100 493 125 493 150 489.8C175 486.7 200 480.3 225 477.3C250 474.3 275 474.7 300 472C325 469.3 350 463.7 375 464.8C400 466 425 474 450 478.3C475 482.7 500 483.3 525 480C550 476.7 575 469.3 600 470.2C625 471 650 480 675 485C700 490 725 491 750 492.5C775 494 800 496 825 497C850 498 875 498 887.5 498L900 498L900 601L887.5 601C875 601 850 601 825 601C800 601 775 601 750 601C725 601 700 601 675 601C650 601 625 601 600 601C575 601 550 601 525 601C500 601 475 601 450 601C425 601 400 601 375 601C350 601 325 601 300 601C275 601 250 601 225 601C200 601 175 601 150 601C125 601 100 601 75 601C50 601 25 601 12.5 601L0 601Z" fill="#519ab4"></path><path d="M0 501L12.5 502.8C25 504.7 50 508.3 75 514.5C100 520.7 125 529.3 150 530.7C175 532 200 526 225 521.8C250 517.7 275 515.3 300 514C325 512.7 350 512.3 375 515.3C400 518.3 425 524.7 450 523.7C475 522.7 500 514.3 525 512.2C550 510 575 514 600 518.5C625 523 650 528 675 528.5C700 529 725 525 750 520.2C775 515.3 800 509.7 825 508C850 506.3 875 508.7 887.5 509.8L900 511L900 601L887.5 601C875 601 850 601 825 601C800 601 775 601 750 601C725 601 700 601 675 601C650 601 625 601 600 601C575 601 550 601 525 601C500 601 475 601 450 601C425 601 400 601 375 601C350 601 325 601 300 601C275 601 250 601 225 601C200 601 175 601 150 601C125 601 100 601 75 601C50 601 25 601 12.5 601L0 601Z" fill="#3687a2"></path><path d="M0 542L12.5 543.5C25 545 50 548 75 549.5C100 551 125 551 150 550.2C175 549.3 200 547.7 225 549C250 550.3 275 554.7 300 554.2C325 553.7 350 548.3 375 550.3C400 552.3 425 561.7 450 564C475 566.3 500 561.7 525 556.2C550 550.7 575 544.3 600 541.8C625 539.3 650 540.7 675 543.8C700 547 725 552 750 554.5C775 557 800 557 825 554.7C850 552.3 875 547.7 887.5 545.3L900 543L900 601L887.5 601C875 601 850 601 825 601C800 601 775 601 750 601C725 601 700 601 675 601C650 601 625 601 600 601C575 601 550 601 525 601C500 601 475 601 450 601C425 601 400 601 375 601C350 601 325 601 300 601C275 601 250 601 225 601C200 601 175 601 150 601C125 601 100 601 75 601C50 601 25 601 12.5 601L0 601Z" fill="#0e7490"></path></svg>