<svg id="visual" viewBox="0 0 900 600" width="900" height="600" xmlns="http://www.w3.org/2000/svg" xmlns:xlink="http://www.w3.org/1999/xlink" version="1.1"><rect x="0" y="0" width="900" height="600" fill="#F3F4F6"></rect><path d="M0 374L12.5 372.5C25 371 50 368 75 364.7C100 361.3 125 357.7 150 361.3C175 365 200 376 225 378.2C250 380.3 275 373.7 300 376.7C325 379.7 350 392.3 375 398.5C400 404.7 425 404.3 450 403.2C475 402 500 400 525 398.2C550 396.3 575 394.7 600 391.3C625 388 650 383 675 383.3C700 383.7 725 389.3 750 385.7C775 382 800 369 825 362.5C850 356 875 356 887.5 356L900 356L900 601L887.5 601C875 601 850 601 825 601C800 601 775 601 750 601C725 601 700 601 675 601C650 601 625 601 600 601C575 601 550 601 525 601C500 601 475 601 450 601C425 601 400 601 375 601C350 601 325 601 300 601C275 601 250 601 225 601C200 601 175 601 150 601C125 601 100 601 75 601C50 601 25 601 12.5 601L0 601Z" fill="#94e2ff"></path><path d="M0 431L12.5 431.8C25 432.7 50 434.3 75 431.3C100 428.3 125 420.7 150 416.3C175 412 200 411 225 407.2C250 403.3 275 396.7 300 395.2C325 393.7 350 397.3 375 405.5C400 413.7 425 426.3 450 425C475 423.7 500 408.3 525 403.5C550 398.7 575 404.3 600 404.8C625 405.3 650 400.7 675 402.5C700 404.3 725 412.7 750 410.5C775 408.3 800 395.7 825 389.2C850 382.7 875 382.3 887.5 382.2L900 382L900 601L887.5 601C875 601 850 601 825 601C800 601 775 601 750 601C725 601 700 601 675 601C650 601 625 601 600 601C575 601 550 601 525 601C500 601 475 601 450 601C425 601 400 601 375 601C350 601 325 601 300 601C275 601 250 601 225 601C200 601 175 601 150 601C125 601 100 601 75 601C50 601 25 601 12.5 601L0 601Z" fill="#7fcae7"></path><path d="M0 455L12.5 456.8C25 458.7 50 462.3 75 457.7C100 453 125 440 150 432C175 424 200 421 225 427C250 433 275 448 300 448C325 448 350 433 375 427.2C400 421.3 425 424.7 450 432C475 439.3 500 450.7 525 448.8C550 447 575 432 600 432C625 432 650 447 675 455.5C700 464 725 466 750 462.7C775 459.3 800 450.7 825 446C850 441.3 875 440.7 887.5 440.3L900 440L900 601L887.5 601C875 601 850 601 825 601C800 601 775 601 750 601C725 601 700 601 675 601C650 601 625 601 600 601C575 601 550 601 525 601C500 601 475 601 450 601C425 601 400 601 375 601C350 601 325 601 300 601C275 601 250 601 225 601C200 601 175 601 150 601C125 601 100 601 75 601C50 601 25 601 12.5 601L0 601Z" fill="#6bb3cf"></path><path d="M0 467L12.5 468C25 469 50 471 75 469.3C100 467.7 125 462.3 150 458.3C175 454.3 200 451.7 225 455C250 458.3 275 467.7 300 471.5C325 475.3 350 473.7 375 475.5C400 477.3 425 482.7 450 478.7C475 474.7 500 461.3 525 457.5C550 453.7 575 459.3 600 461.5C625 463.7 650 462.3 675 465.2C700 468 725 475 750 479.5C775 484 800 486 825 480.7C850 475.3 875 462.7 887.5 456.3L900 450L900 601L887.5 601C875 601 850 601 825 601C800 601 775 601 750 601C725 601 700 601 675 601C650 601 625 601 600 601C575 601 550 601 525 601C500 601 475 601 450 601C425 601 400 601 375 601C350 601 325 601 300 601C275 601 250 601 225 601C200 601 175 601 150 601C125 601 100 601 75 601C50 601 25 601 12.5 601L0 601Z" fill="#579db8"></path><path d="M0 481L12.5 486C25 491 50 501 75 506C100 511 125 511 150 508.3C175 505.7 200 500.3 225 497.8C250 495.3 275 495.7 300 493.5C325 491.3 350 486.7 375 487.7C400 488.7 425 495.3 450 498.8C475 502.3 500 502.7 525 499.8C550 497 575 491 600 491.8C625 492.7 650 500.3 675 504.5C700 508.7 725 509.3 750 510.5C775 511.7 800 513.3 825 514.2C850 515 875 515 887.5 515L900 515L900 601L887.5 601C875 601 850 601 825 601C800 601 775 601 750 601C725 601 700 601 675 601C650 601 625 601 600 601C575 601 550 601 525 601C500 601 475 601 450 601C425 601 400 601 375 601C350 601 325 601 300 601C275 601 250 601 225 601C200 601 175 601 150 601C125 601 100 601 75 601C50 601 25 601 12.5 601L0 601Z" fill="#4287a1"></path><path d="M0 517L12.5 518.5C25 520 50 523 75 528.2C100 533.3 125 540.7 150 542C175 543.3 200 538.7 225 535.2C250 531.7 275 529.3 300 528.2C325 527 350 527 375 529.7C400 532.3 425 537.7 450 536.8C475 536 500 529 525 527C550 525 575 528 600 531.7C625 535.3 650 539.7 675 540.2C700 540.7 725 537.3 750 533.3C775 529.3 800 524.7 825 523.2C850 521.7 875 523.3 887.5 524.2L900 525L900 601L887.5 601C875 601 850 601 825 601C800 601 775 601 750 601C725 601 700 601 675 601C650 601 625 601 600 601C575 601 550 601 525 601C500 601 475 601 450 601C425 601 400 601 375 601C350 601 325 601 300 601C275 601 250 601 225 601C200 601 175 601 150 601C125 601 100 601 75 601C50 601 25 601 12.5 601L0 601Z" fill="#2d728b"></path><path d="M0 551L12.5 552.3C25 553.7 50 556.3 75 557.7C100 559 125 559 150 558.3C175 557.7 200 556.3 225 557.5C250 558.7 275 562.3 300 561.8C325 561.3 350 556.7 375 558.2C400 559.7 425 567.3 450 569.3C475 571.3 500 567.7 525 563.2C550 558.7 575 553.3 600 551.3C625 549.3 650 550.7 675 553.3C700 556 725 560 750 562C775 564 800 564 825 562C850 560 875 556 887.5 554L900 552L900 601L887.5 601C875 601 850 601 825 601C800 601 775 601 750 601C725 601 700 601 675 601C650 601 625 601 600 601C575 601 550 601 525 601C500 601 475 601 450 601C425 601 400 601 375 601C350 601 325 601 300 601C275 601 250 601 225 601C200 601 175 601 150 601C125 601 100 601 75 601C50 601 25 601 12.5 601L0 601Z" fill="#155e75"></path></svg>