<svg id="visual" viewBox="0 0 900 600" width="900" height="600" xmlns="http://www.w3.org/2000/svg" xmlns:xlink="http://www.w3.org/1999/xlink" version="1.1"><path d="M0 79L12.5 81C25 83 50 87 75 85C100 83 125 75 150 76C175 77 200 87 225 91C250 95 275 93 300 94C325 95 350 99 375 95C400 91 425 79 450 73C475 67 500 67 525 69C550 71 575 75 600 75C625 75 650 71 675 71C700 71 725 75 750 79C775 83 800 87 825 84C850 81 875 71 887.5 66L900 61L900 0L887.5 0C875 0 850 0 825 0C800 0 775 0 750 0C725 0 700 0 675 0C650 0 625 0 600 0C575 0 550 0 525 0C500 0 475 0 450 0C425 0 400 0 375 0C350 0 325 0 300 0C275 0 250 0 225 0C200 0 175 0 150 0C125 0 100 0 75 0C50 0 25 0 12.5 0L0 0Z" fill="#e3f8ff"></path><path d="M0 217L12.5 222C25 227 50 237 75 239C100 241 125 235 150 233C175 231 200 233 225 240C250 247 275 259 300 260C325 261 350 251 375 239C400 227 425 213 450 208C475 203 500 207 525 216C550 225 575 239 600 241C625 243 650 233 675 230C700 227 725 231 750 246C775 261 800 287 825 284C850 281 875 249 887.5 233L900 217L900 59L887.5 64C875 69 850 79 825 82C800 85 775 81 750 77C725 73 700 69 675 69C650 69 625 73 600 73C575 73 550 69 525 67C500 65 475 65 450 71C425 77 400 89 375 93C350 97 325 93 300 92C275 91 250 93 225 89C200 85 175 75 150 74C125 73 100 81 75 83C50 85 25 81 12.5 79L0 77Z" fill="#dcf6ff"></path><path d="M0 427L12.5 426C25 425 50 423 75 419C100 415 125 409 150 410C175 411 200 419 225 424C250 429 275 431 300 436C325 441 350 449 375 441C400 433 425 409 450 407C475 405 500 425 525 433C550 441 575 437 600 433C625 429 650 425 675 420C700 415 725 409 750 413C775 417 800 431 825 439C850 447 875 449 887.5 450L900 451L900 215L887.5 231C875 247 850 279 825 282C800 285 775 259 750 244C725 229 700 225 675 228C650 231 625 241 600 239C575 237 550 223 525 214C500 205 475 201 450 206C425 211 400 225 375 237C350 249 325 259 300 258C275 257 250 245 225 238C200 231 175 229 150 231C125 233 100 239 75 237C50 235 25 225 12.5 220L0 215Z" fill="#d5f4ff"></path><path d="M0 481L12.5 480C25 479 50 477 75 476C100 475 125 475 150 479C175 483 200 491 225 494C250 497 275 495 300 497C325 499 350 505 375 501C400 497 425 483 450 480C475 477 500 485 525 490C550 495 575 497 600 495C625 493 650 487 675 486C700 485 725 489 750 495C775 501 800 509 825 512C850 515 875 513 887.5 512L900 511L900 449L887.5 448C875 447 850 445 825 437C800 429 775 415 750 411C725 407 700 413 675 418C650 423 625 427 600 431C575 435 550 439 525 431C500 423 475 403 450 405C425 407 400 431 375 439C350 447 325 439 300 434C275 429 250 427 225 422C200 417 175 409 150 408C125 407 100 413 75 417C50 421 25 423 12.5 424L0 425Z" fill="#c7f0ff"></path><path d="M0 601L12.5 601C25 601 50 601 75 601C100 601 125 601 150 601C175 601 200 601 225 601C250 601 275 601 300 601C325 601 350 601 375 601C400 601 425 601 450 601C475 601 500 601 525 601C550 601 575 601 600 601C625 601 650 601 675 601C700 601 725 601 750 601C775 601 800 601 825 601C850 601 875 601 887.5 601L900 601L900 509L887.5 510C875 511 850 513 825 510C800 507 775 499 750 493C725 487 700 483 675 484C650 485 625 491 600 493C575 495 550 493 525 488C500 483 475 475 450 478C425 481 400 495 375 499C350 503 325 497 300 495C275 493 250 495 225 492C200 489 175 481 150 477C125 473 100 473 75 474C50 475 25 477 12.5 478L0 479Z" fill="#b9ecff"></path></svg>