<svg id="visual" viewBox="0 0 900 600" width="900" height="600" xmlns="http://www.w3.org/2000/svg" xmlns:xlink="http://www.w3.org/1999/xlink" version="1.1"><rect x="0" y="0" width="900" height="600" fill="#155E75"></rect><path d="M0 456L11.5 449.5C23 443 46 430 69 410.8C92 391.7 115 366.3 138.2 352.2C161.3 338 184.7 335 207.8 342.3C231 349.7 254 367.3 277 395.7C300 424 323 463 346 465.8C369 468.7 392 435.3 415.2 433.3C438.3 431.3 461.7 460.7 484.8 459C508 457.3 531 424.7 554 409.8C577 395 600 398 623 407.3C646 416.7 669 432.3 692.2 435.3C715.3 438.3 738.7 428.7 761.8 438C785 447.3 808 475.7 831 481C854 486.3 877 468.7 888.5 459.8L900 451L900 601L888.5 601C877 601 854 601 831 601C808 601 785 601 761.8 601C738.7 601 715.3 601 692.2 601C669 601 646 601 623 601C600 601 577 601 554 601C531 601 508 601 484.8 601C461.7 601 438.3 601 415.2 601C392 601 369 601 346 601C323 601 300 601 277 601C254 601 231 601 207.8 601C184.7 601 161.3 601 138.2 601C115 601 92 601 69 601C46 601 23 601 11.5 601L0 601Z" fill="#E0E7FF" stroke-linecap="round" stroke-linejoin="miter"></path></svg>